<svg width="666" height="250" viewBox="0 0 666 250" fill="none" xmlns="http://www.w3.org/2000/svg">
<path d="M125.129 0.000152588H62.5635V62.5003H125.129V0.000152588Z" fill="white"/>
<path d="M125.129 125.069H62.5635V187.569H125.129V125.069Z" fill="white"/>
<path d="M62.5651 0.000183105H0V62.5003H62.5651V0.000183105Z" fill="white"/>
<path d="M62.5651 62.5006H0V125.001H62.5651V62.5006Z" fill="white"/>
<path d="M62.5651 125H0V187.5H62.5651V125Z" fill="white"/>
<path d="M62.5651 187.501H0V250.002H62.5651V187.501Z" fill="white"/>
<path d="M187.698 0.000152588H125.133V62.5003H187.698V0.000152588Z" fill="white"/>
<path d="M187.565 125.069H125V187.569H187.565V125.069Z" fill="white"/>
<path d="M187.565 125.069H125V187.569H187.565V125.069Z" fill="white"/>
<path d="M250.001 62.4985H187.436V124.999H250.001V62.4985Z" fill="white"/>
<path d="M187.436 62.5003H250.001C250.001 27.9824 221.953 0.000152588 187.436 0.000152588V62.5003Z" fill="white"/>
<path d="M250.001 187.241H187.436V249.742H250.001V187.241Z" fill="#FF1B64"/>
<path d="M187.565 187.241H125V249.742H187.565V187.241Z" fill="#FF1B64"/>
<path d="M308.3 131.002V61.0016H338.2C347.933 61.0016 355.5 63.2683 360.9 67.8016C366.3 72.2683 369 78.4683 369 86.4016C369 91.6016 367.767 96.1016 365.3 99.9016C362.833 103.635 359.333 106.502 354.8 108.502C350.267 110.502 344.867 111.502 338.6 111.502H317.3L324.5 104.402V131.002H308.3ZM352.8 131.002L335.3 105.602H352.6L370.3 131.002H352.8ZM324.5 106.202L317.3 98.6016H337.7C342.7 98.6016 346.433 97.5349 348.9 95.4016C351.367 93.2016 352.6 90.2016 352.6 86.4016C352.6 82.5349 351.367 79.5349 348.9 77.4016C346.433 75.2683 342.7 74.2016 337.7 74.2016H317.3L324.5 66.5016V106.202ZM406.935 131.802C400.802 131.802 395.402 130.602 390.735 128.202C386.135 125.802 382.568 122.535 380.035 118.402C377.502 114.202 376.235 109.435 376.235 104.102C376.235 98.7016 377.468 93.9349 379.935 89.8016C382.468 85.6016 385.902 82.3349 390.235 80.0016C394.568 77.6016 399.468 76.4016 404.935 76.4016C410.202 76.4016 414.935 77.5349 419.135 79.8016C423.402 82.0016 426.768 85.2016 429.235 89.4016C431.702 93.5349 432.935 98.5016 432.935 104.302C432.935 104.902 432.902 105.602 432.835 106.402C432.768 107.135 432.702 107.835 432.635 108.502H388.935V99.4016H424.435L418.435 102.102C418.435 99.3016 417.868 96.8683 416.735 94.8016C415.602 92.7349 414.035 91.1349 412.035 90.0016C410.035 88.8016 407.702 88.2016 405.035 88.2016C402.368 88.2016 400.002 88.8016 397.935 90.0016C395.935 91.1349 394.368 92.7683 393.235 94.9016C392.102 96.9683 391.535 99.4349 391.535 102.302V104.702C391.535 107.635 392.168 110.235 393.435 112.502C394.768 114.702 396.602 116.402 398.935 117.602C401.335 118.735 404.135 119.302 407.335 119.302C410.202 119.302 412.702 118.868 414.835 118.002C417.035 117.135 419.035 115.835 420.835 114.102L429.135 123.102C426.668 125.902 423.568 128.068 419.835 129.602C416.102 131.068 411.802 131.802 406.935 131.802ZM465.921 131.802C460.854 131.802 456.288 130.668 452.221 128.402C448.154 126.068 444.921 122.835 442.521 118.702C440.188 114.568 439.021 109.702 439.021 104.102C439.021 98.4349 440.188 93.5349 442.521 89.4016C444.921 85.2683 448.154 82.0683 452.221 79.8016C456.288 77.5349 460.854 76.4016 465.921 76.4016C470.454 76.4016 474.421 77.4016 477.821 79.4016C481.221 81.4016 483.854 84.4349 485.721 88.5016C487.588 92.5683 488.521 97.7683 488.521 104.102C488.521 110.368 487.621 115.568 485.821 119.702C484.021 123.768 481.421 126.802 478.021 128.802C474.688 130.802 470.654 131.802 465.921 131.802ZM468.621 119.002C471.154 119.002 473.454 118.402 475.521 117.202C477.588 116.002 479.221 114.302 480.421 112.102C481.688 109.835 482.321 107.168 482.321 104.102C482.321 100.968 481.688 98.3016 480.421 96.1016C479.221 93.9016 477.588 92.2016 475.521 91.0016C473.454 89.8016 471.154 89.2016 468.621 89.2016C466.021 89.2016 463.688 89.8016 461.621 91.0016C459.554 92.2016 457.888 93.9016 456.621 96.1016C455.421 98.3016 454.821 100.968 454.821 104.102C454.821 107.168 455.421 109.835 456.621 112.102C457.888 114.302 459.554 116.002 461.621 117.202C463.688 118.402 466.021 119.002 468.621 119.002ZM482.721 131.002V120.002L483.021 104.002L482.021 88.1016V56.8016H497.621V131.002H482.721ZM537.159 131.802C531.426 131.802 526.326 130.602 521.859 128.202C517.459 125.802 513.959 122.535 511.359 118.402C508.826 114.202 507.559 109.435 507.559 104.102C507.559 98.7016 508.826 93.9349 511.359 89.8016C513.959 85.6016 517.459 82.3349 521.859 80.0016C526.326 77.6016 531.426 76.4016 537.159 76.4016C542.826 76.4016 547.893 77.6016 552.359 80.0016C556.826 82.3349 560.326 85.5683 562.859 89.7016C565.393 93.8349 566.659 98.6349 566.659 104.102C566.659 109.435 565.393 114.202 562.859 118.402C560.326 122.535 556.826 125.802 552.359 128.202C547.893 130.602 542.826 131.802 537.159 131.802ZM537.159 119.002C539.759 119.002 542.093 118.402 544.159 117.202C546.226 116.002 547.859 114.302 549.059 112.102C550.259 109.835 550.859 107.168 550.859 104.102C550.859 100.968 550.259 98.3016 549.059 96.1016C547.859 93.9016 546.226 92.2016 544.159 91.0016C542.093 89.8016 539.759 89.2016 537.159 89.2016C534.559 89.2016 532.226 89.8016 530.159 91.0016C528.093 92.2016 526.426 93.9016 525.159 96.1016C523.959 98.3016 523.359 100.968 523.359 104.102C523.359 107.168 523.959 109.835 525.159 112.102C526.426 114.302 528.093 116.002 530.159 117.202C532.226 118.402 534.559 119.002 537.159 119.002ZM598.587 131.802C592.253 131.802 587.32 130.202 583.787 127.002C580.253 123.735 578.487 118.902 578.487 112.502V65.3016H594.087V112.302C594.087 114.568 594.687 116.335 595.887 117.602C597.087 118.802 598.72 119.402 600.787 119.402C603.253 119.402 605.353 118.735 607.087 117.402L611.287 128.402C609.687 129.535 607.753 130.402 605.487 131.002C603.287 131.535 600.987 131.802 598.587 131.802ZM570.187 89.2016V77.2016H607.487V89.2016H570.187ZM637.644 131.802C633.044 131.802 628.61 131.268 624.344 130.202C620.144 129.068 616.81 127.668 614.344 126.002L619.544 114.802C622.01 116.335 624.91 117.602 628.244 118.602C631.644 119.535 634.977 120.002 638.244 120.002C641.844 120.002 644.377 119.568 645.844 118.702C647.377 117.835 648.144 116.635 648.144 115.102C648.144 113.835 647.544 112.902 646.344 112.302C645.21 111.635 643.677 111.135 641.744 110.802C639.81 110.468 637.677 110.135 635.344 109.802C633.077 109.468 630.777 109.035 628.444 108.502C626.11 107.902 623.977 107.035 622.044 105.902C620.11 104.768 618.544 103.235 617.344 101.302C616.21 99.3683 615.644 96.8683 615.644 93.8016C615.644 90.4016 616.61 87.4016 618.544 84.8016C620.544 82.2016 623.41 80.1683 627.144 78.7016C630.877 77.1683 635.344 76.4016 640.544 76.4016C644.21 76.4016 647.944 76.8016 651.744 77.6016C655.544 78.4016 658.71 79.5683 661.244 81.1016L656.044 92.2016C653.444 90.6683 650.81 89.6349 648.144 89.1016C645.544 88.5016 643.01 88.2016 640.544 88.2016C637.077 88.2016 634.544 88.6683 632.944 89.6016C631.344 90.5349 630.544 91.7349 630.544 93.2016C630.544 94.5349 631.11 95.5349 632.244 96.2016C633.444 96.8683 635.01 97.4016 636.944 97.8016C638.877 98.2016 640.977 98.5683 643.244 98.9016C645.577 99.1683 647.91 99.6016 650.244 100.202C652.577 100.802 654.677 101.668 656.544 102.802C658.477 103.868 660.044 105.368 661.244 107.302C662.444 109.168 663.044 111.635 663.044 114.702C663.044 118.035 662.044 121.002 660.044 123.602C658.044 126.135 655.144 128.135 651.344 129.602C647.61 131.068 643.044 131.802 637.644 131.802Z" fill="white"/>
<path d="M341.8 237.202C336.4 237.202 331.367 236.335 326.7 234.602C322.1 232.802 318.1 230.268 314.7 227.002C311.3 223.735 308.633 219.902 306.7 215.502C304.833 211.102 303.9 206.268 303.9 201.002C303.9 195.735 304.833 190.902 306.7 186.502C308.633 182.102 311.3 178.268 314.7 175.002C318.167 171.735 322.2 169.235 326.8 167.502C331.4 165.702 336.433 164.802 341.9 164.802C347.967 164.802 353.433 165.868 358.3 168.002C363.233 170.068 367.367 173.135 370.7 177.202L360.3 186.802C357.9 184.068 355.233 182.035 352.3 180.702C349.367 179.302 346.167 178.602 342.7 178.602C339.433 178.602 336.433 179.135 333.7 180.202C330.967 181.268 328.6 182.802 326.6 184.802C324.6 186.802 323.033 189.168 321.9 191.902C320.833 194.635 320.3 197.668 320.3 201.002C320.3 204.335 320.833 207.368 321.9 210.102C323.033 212.835 324.6 215.202 326.6 217.202C328.6 219.202 330.967 220.735 333.7 221.802C336.433 222.868 339.433 223.402 342.7 223.402C346.167 223.402 349.367 222.735 352.3 221.402C355.233 220.002 357.9 217.902 360.3 215.102L370.7 224.702C367.367 228.768 363.233 231.868 358.3 234.002C353.433 236.135 347.933 237.202 341.8 237.202ZM379.063 236.002V161.802H394.663V236.002H379.063ZM431.341 236.802C426.875 236.802 422.875 235.935 419.341 234.202C415.875 232.468 413.175 229.835 411.241 226.302C409.308 222.702 408.341 218.135 408.341 212.602V182.202H423.941V210.302C423.941 214.768 424.875 218.068 426.741 220.202C428.675 222.268 431.375 223.302 434.841 223.302C437.241 223.302 439.375 222.802 441.241 221.802C443.108 220.735 444.575 219.135 445.641 217.002C446.708 214.802 447.241 212.068 447.241 208.802V182.202H462.841V236.002H448.041V221.202L450.741 225.502C448.941 229.235 446.275 232.068 442.741 234.002C439.275 235.868 435.475 236.802 431.341 236.802ZM508.594 236.802C503.86 236.802 499.794 235.802 496.394 233.802C492.994 231.802 490.394 228.768 488.594 224.702C486.794 220.568 485.894 215.368 485.894 209.102C485.894 202.768 486.827 197.568 488.694 193.502C490.627 189.435 493.294 186.402 496.694 184.402C500.094 182.402 504.06 181.402 508.594 181.402C513.66 181.402 518.194 182.535 522.194 184.802C526.26 187.068 529.46 190.268 531.794 194.402C534.194 198.535 535.394 203.435 535.394 209.102C535.394 214.702 534.194 219.568 531.794 223.702C529.46 227.835 526.26 231.068 522.194 233.402C518.194 235.668 513.66 236.802 508.594 236.802ZM476.794 236.002V161.802H492.394V193.102L491.394 209.002L491.694 225.002V236.002H476.794ZM505.894 224.002C508.494 224.002 510.794 223.402 512.794 222.202C514.86 221.002 516.494 219.302 517.694 217.102C518.96 214.835 519.594 212.168 519.594 209.102C519.594 205.968 518.96 203.302 517.694 201.102C516.494 198.902 514.86 197.202 512.794 196.002C510.794 194.802 508.494 194.202 505.894 194.202C503.294 194.202 500.96 194.802 498.894 196.002C496.827 197.202 495.194 198.902 493.994 201.102C492.794 203.302 492.194 205.968 492.194 209.102C492.194 212.168 492.794 214.835 493.994 217.102C495.194 219.302 496.827 221.002 498.894 222.202C500.96 223.402 503.294 224.002 505.894 224.002Z" fill="#FF1B64"/>
</svg>
