<svg width="165" height="31" viewBox="0 0 165 31" fill="none" xmlns="http://www.w3.org/2000/svg">
<path d="M14.9946 12.0645C13.1015 12.0645 11.5664 13.5996 11.5664 15.4927V18.9209H14.9946C16.8878 18.9209 18.4229 17.3858 18.4229 15.4927C18.4229 13.5996 16.8878 12.0645 14.9946 12.0645Z" fill="#EB0028"/>
<path d="M14.993 0.5C6.71426 0.5 0 7.21426 0 15.493V30.4861H6.85647V15.493C6.85647 11.0005 10.5005 7.35649 14.993 7.35649C19.4856 7.35649 23.1296 11.0005 23.1296 15.493C23.1296 19.9856 19.4856 23.6296 14.993 23.6296H11.5648V30.4861H14.993C23.2718 30.4861 29.9861 23.7718 29.9861 15.493C29.9861 7.21426 23.2718 0.5 14.993 0.5Z" fill="#EB0028"/>
<path d="M36.8408 5.09961V25.8996H40.1955V18.224L47.0029 25.8996H51.4758L45.1343 18.8371C48.2389 18.1407 50.5636 15.3647 50.5636 12.0542C50.5636 8.21886 47.4444 5.09961 43.609 5.09961H36.8359H36.8408ZM43.614 8.63575C45.4924 8.63575 47.0177 10.1758 47.0177 12.0542C47.0177 13.9326 45.4924 15.4579 43.614 15.4579H43.5698H40.2004V8.63575H43.6189H43.614Z" fill="#EB0028"/>
<path d="M113.899 5.09964V25.8996H117.254V18.9892H120.241C120.388 18.9892 120.54 18.9892 120.668 18.9892C124.503 18.9892 127.622 15.8846 127.622 12.0493C127.622 8.214 124.503 5.09473 120.668 5.09473H113.895L113.899 5.09964ZM120.673 8.63577C122.551 8.63577 124.076 10.1758 124.076 12.0542C124.076 13.9326 122.551 15.4579 120.673 15.4579H120.628H117.269V8.63577H120.673Z" fill="#EB0028"/>
<path d="M80.4315 11.8924C79.1808 11.0145 77.6604 10.4995 76.0174 10.4995C71.7701 10.4995 68.3125 13.9572 68.3125 18.2044C68.3125 22.4517 71.7701 25.9094 76.0174 25.9094C77.6604 25.9094 79.1808 25.3944 80.4315 24.5165V25.9094H83.7911V5.09473H80.4315V11.8973V11.8924ZM76.0174 22.3144C73.7467 22.3144 71.8977 20.4654 71.8977 18.1995C71.8977 15.9337 73.7467 14.0798 76.0174 14.0798C78.2882 14.0798 80.1323 15.9288 80.1323 18.1995C80.1323 20.4703 78.2833 22.3144 76.0174 22.3144Z" fill="#EB0028"/>
<path d="M107.755 7.27737H104.401V11.3971H101.281V14.1731H104.401V21.0786C104.401 22.5304 104.847 23.6976 105.73 24.551C106.647 25.4387 107.711 25.8311 109.177 25.8311H111.262V22.4764H109.81C109.158 22.4764 108.653 22.2949 108.295 21.9369C107.942 21.5789 107.76 21.0835 107.76 20.4656V14.1682H111.296V11.3922H107.76V7.27246L107.755 7.27737Z" fill="#EB0028"/>
<path d="M148.045 30.5H152.048L153.691 26.6108L160.812 10.4995H156.751L152.695 20.5488L148.855 10.4995H144.828L150.645 24.7814L148.045 30.5Z" fill="#EB0028"/>
<path d="M140.266 11.9954C138.991 11.0586 137.417 10.4995 135.715 10.4995C131.472 10.4995 128.02 13.9523 128.02 18.1947C128.02 22.4371 131.472 25.8898 135.715 25.8898C137.417 25.8898 138.991 25.3356 140.266 24.3939V25.8996H143.596V10.5142H140.266V11.9905V11.9954ZM135.72 22.3095C133.454 22.3095 131.605 20.4654 131.605 18.1947C131.605 15.9239 133.449 14.0798 135.72 14.0798C137.99 14.0798 139.834 15.9239 139.834 18.1947C139.834 20.4654 137.99 22.3095 135.72 22.3095Z" fill="#EB0028"/>
<path d="M93.1063 10.5044C88.859 10.5044 85.4062 13.9572 85.4062 18.2045C85.4062 22.4518 88.859 25.9045 93.1063 25.9045C97.3536 25.9045 100.806 22.4518 100.806 18.2045C100.806 13.9572 97.3536 10.5044 93.1063 10.5044ZM93.1063 22.3144C90.8355 22.3144 88.9914 20.4654 88.9914 18.1995C88.9914 15.9337 90.8404 14.0847 93.1063 14.0847C95.3722 14.0847 97.2261 15.9337 97.2261 18.1995C97.2261 20.4654 95.3771 22.3144 93.1063 22.3144Z" fill="#EB0028"/>
<path d="M59.0009 10.4996C54.7536 10.4996 51.3008 13.9523 51.3008 18.1996C51.3008 22.4469 54.7536 25.8997 59.0009 25.8997C61.7278 25.8997 64.18 24.4921 65.5631 22.2213L62.1103 20.8824C61.355 21.7554 60.2417 22.3096 59.0009 22.3096C57.25 22.3096 55.7492 21.2061 55.1557 19.6612H66.5587L66.5734 19.5778C66.6568 19.1168 66.7009 18.6508 66.7009 18.1898C66.7009 13.9425 63.2482 10.4897 59.0009 10.4897V10.4996ZM62.8165 16.7332H55.1557C55.7492 15.1834 57.25 14.0798 59.0009 14.0798C60.7518 14.0798 62.2574 15.1834 62.846 16.7332H62.8116H62.8165Z" fill="#EB0028"/>
<path d="M162.678 5.09473C163.033 5.09473 163.352 5.17743 163.634 5.34284C163.915 5.50212 164.136 5.72573 164.295 6.01366C164.455 6.29546 164.534 6.61402 164.534 6.96934C164.534 7.32466 164.455 7.64629 164.295 7.93422C164.136 8.22215 163.915 8.44882 163.634 8.61423C163.352 8.77351 163.033 8.85315 162.678 8.85315C162.316 8.85315 161.995 8.77351 161.713 8.61423C161.431 8.44882 161.211 8.22215 161.051 7.93422C160.892 7.64629 160.812 7.32466 160.812 6.96934C160.812 6.61402 160.892 6.29546 161.051 6.01366C161.211 5.72573 161.431 5.50212 161.713 5.34284C161.995 5.17743 162.316 5.09473 162.678 5.09473ZM162.678 8.48558C163.119 8.48558 163.474 8.34468 163.744 8.06287C164.02 7.78106 164.157 7.41656 164.157 6.96934C164.157 6.52213 164.02 6.15762 163.744 5.87582C163.474 5.59401 163.119 5.45311 162.678 5.45311C162.231 5.45311 161.872 5.59401 161.603 5.87582C161.339 6.15762 161.208 6.52213 161.208 6.96934C161.208 7.41656 161.339 7.78106 161.603 8.06287C161.872 8.34468 162.231 8.48558 162.678 8.48558ZM163.505 6.58339C163.505 6.73042 163.465 6.85601 163.386 6.96015C163.312 7.05817 163.208 7.12862 163.073 7.17151L163.588 7.93422L163.009 7.94341L162.568 7.20827H162.411V7.94341H161.934V5.96771H162.816C163.024 5.96771 163.189 6.02285 163.312 6.13312C163.441 6.24339 163.505 6.39348 163.505 6.58339ZM162.411 6.81313H162.788C162.856 6.81313 162.911 6.79475 162.954 6.75799C163.003 6.72123 163.027 6.66916 163.027 6.60177C163.027 6.53438 163.003 6.48537 162.954 6.45474C162.911 6.41799 162.856 6.39961 162.788 6.39961H162.411V6.81313Z" fill="#EB0028"/>
</svg>
